<svg width="951" height="158" viewBox="0 0 951 158" fill="none" xmlns="http://www.w3.org/2000/svg">
<rect width="951" height="158" rx="35" fill="url(#paint0_linear_2004_4)"/>
<path d="M92.8028 111C91.4161 111 90.2428 110.573 89.2828 109.72C88.3761 108.867 87.9228 107.8 87.9228 106.52V59.4C87.9228 58.1733 88.3761 57.1333 89.2828 56.28C90.2428 55.4267 91.4161 55 92.8028 55H110.883C115.523 55 119.629 55.88 123.203 57.64C126.829 59.4 129.629 61.88 131.603 65.08C133.576 68.28 134.563 71.96 134.563 76.12V89.64C134.563 93.8 133.549 97.5067 131.523 100.76C129.549 103.96 126.749 106.467 123.123 108.28C119.549 110.093 115.469 111 110.883 111H92.8028ZM110.083 102.68C114.829 102.68 118.483 101.56 121.043 99.32C123.656 97.08 124.963 93.9067 124.963 89.8V76.04C124.963 71.9333 123.683 68.7867 121.123 66.6C118.563 64.4133 114.883 63.32 110.083 63.32H97.5228V102.68H110.083ZM145.457 111.72C143.377 111.453 141.751 110.707 140.577 109.48C139.404 108.2 138.817 106.653 138.817 104.84C138.817 103.4 139.164 101.96 139.857 100.52L158.417 57.4C159.324 55.32 160.897 54.28 163.137 54.28C165.324 54.28 166.897 55.32 167.857 57.4L186.417 100.52C187.057 102.013 187.377 103.427 187.377 104.76C187.377 106.627 186.791 108.2 185.617 109.48C184.444 110.707 182.817 111.453 180.737 111.72L173.937 96.04H152.257L145.457 111.72ZM170.977 87.72L161.697 64.44L160.817 64.76L162.657 69.32L155.217 87.72H170.977ZM198.295 111C196.962 111 195.895 110.627 195.095 109.88C194.295 109.133 193.895 108.12 193.895 106.84C193.895 105.667 194.215 104.733 194.855 104.04L231.095 60.6L230.455 60.04L227.655 63.24H202.855C200.562 63.24 198.802 62.5467 197.575 61.16C196.349 59.72 195.735 57.6667 195.735 55H238.135C239.522 55 240.589 55.3733 241.335 56.12C242.135 56.8133 242.535 57.8267 242.535 59.16C242.535 60.2267 242.215 61.1333 241.575 61.88L205.575 105.4L206.215 105.88L208.935 102.76H235.735C238.029 102.76 239.762 103.48 240.935 104.92C242.162 106.307 242.775 108.333 242.775 111H198.295ZM253.608 111C252.274 111 251.208 110.627 250.408 109.88C249.608 109.133 249.208 108.12 249.208 106.84C249.208 105.667 249.528 104.733 250.168 104.04L286.408 60.6L285.768 60.04L282.968 63.24H258.168C255.874 63.24 254.114 62.5467 252.888 61.16C251.661 59.72 251.048 57.6667 251.048 55H293.448C294.834 55 295.901 55.3733 296.648 56.12C297.448 56.8133 297.848 57.8267 297.848 59.16C297.848 60.2267 297.528 61.1333 296.888 61.88L260.888 105.4L261.528 105.88L264.248 102.76H291.048C293.341 102.76 295.074 103.48 296.248 104.92C297.474 106.307 298.088 108.333 298.088 111H253.608ZM320.767 90.84L300.927 55.32C301.407 55.0533 302.127 54.8133 303.087 54.6C304.047 54.3867 304.927 54.28 305.727 54.28C307.487 54.28 308.953 54.6533 310.127 55.4C311.353 56.0933 312.393 57.2133 313.247 58.76L325.407 81.48L323.327 85.64L324.127 86.04L337.967 58.76C339.46 55.7733 341.967 54.28 345.487 54.28C346.287 54.28 347.167 54.3867 348.127 54.6C349.087 54.8133 349.807 55.0533 350.287 55.32L330.447 90.84V104.36C330.447 106.707 329.62 108.52 327.967 109.8C326.313 111.08 323.913 111.72 320.767 111.72V90.84ZM395.973 63.4H376.533C376.533 57.8 379.119 55 384.293 55H424.933C424.933 57.7733 424.266 59.88 422.933 61.32C421.653 62.7067 419.733 63.4 417.173 63.4H405.573V104.36C405.573 106.707 404.746 108.52 403.093 109.8C401.439 111.08 399.066 111.72 395.973 111.72V63.4ZM428.348 111.72C426.268 111.453 424.641 110.707 423.468 109.48C422.294 108.2 421.708 106.653 421.708 104.84C421.708 103.4 422.054 101.96 422.748 100.52L441.308 57.4C442.214 55.32 443.788 54.28 446.028 54.28C448.214 54.28 449.788 55.32 450.748 57.4L469.308 100.52C469.948 102.013 470.268 103.427 470.268 104.76C470.268 106.627 469.681 108.2 468.508 109.48C467.334 110.707 465.708 111.453 463.628 111.72L456.828 96.04H435.148L428.348 111.72ZM453.868 87.72L444.588 64.44L443.708 64.76L445.548 69.32L438.108 87.72H453.868ZM497.875 111.72C493.181 111.72 489.101 111.107 485.635 109.88C482.168 108.653 479.501 106.973 477.635 104.84C475.821 102.707 474.915 100.253 474.915 97.48C474.915 93.16 477.635 91 483.075 91C483.181 95.2133 484.515 98.4133 487.075 100.6C489.688 102.787 493.341 103.88 498.035 103.88C502.141 103.88 505.315 103.187 507.555 101.8C509.795 100.413 510.915 98.4133 510.915 95.8C510.915 94.1467 510.488 92.8133 509.635 91.8C508.781 90.7333 507.341 89.8 505.315 89C503.288 88.1467 500.355 87.2933 496.515 86.44C491.395 85.32 487.341 84.0133 484.355 82.52C481.421 81.0267 479.288 79.24 477.955 77.16C476.621 75.08 475.955 72.4933 475.955 69.4C475.955 66.4133 476.835 63.7733 478.595 61.48C480.355 59.1867 482.835 57.4267 486.035 56.2C489.235 54.92 492.941 54.28 497.155 54.28C501.155 54.28 504.755 54.84 507.955 55.96C511.155 57.0267 513.661 58.5467 515.475 60.52C517.288 62.4933 518.195 64.76 518.195 67.32C518.195 71 515.608 72.92 510.435 73.08C510.008 69.24 508.728 66.44 506.595 64.68C504.515 62.92 501.368 62.04 497.155 62.04C493.421 62.04 490.541 62.68 488.515 63.96C486.488 65.24 485.475 67.0533 485.475 69.4C485.475 71 485.848 72.3333 486.595 73.4C487.395 74.4133 488.701 75.32 490.515 76.12C492.328 76.8667 494.941 77.6133 498.355 78.36C503.795 79.5867 508.115 80.9733 511.315 82.52C514.515 84.0133 516.808 85.8267 518.195 87.96C519.635 90.04 520.355 92.6533 520.355 95.8C520.355 99.0533 519.421 101.88 517.555 104.28C515.741 106.68 513.128 108.52 509.715 109.8C506.355 111.08 502.408 111.72 497.875 111.72ZM528.626 61.72C528.626 59.32 529.453 57.48 531.106 56.2C532.813 54.92 535.186 54.28 538.226 54.28V80.52L565.826 54.28C567.053 55.1867 568.039 56.1733 568.786 57.24C569.533 58.3067 569.906 59.24 569.906 60.04C569.906 60.7867 569.639 61.56 569.106 62.36C568.573 63.16 567.826 64.0133 566.866 64.92L549.906 80.84L572.626 108.76C571.079 110.733 569.186 111.72 566.946 111.72C564.546 111.72 562.599 110.813 561.106 109L543.266 86.92L538.226 91.64V104.68C538.226 107.08 537.453 108.867 535.906 110.04C534.359 111.16 531.933 111.72 528.626 111.72V61.72ZM606.397 111C605.063 111 603.917 110.573 602.957 109.72C601.997 108.813 601.517 107.747 601.517 106.52V59.4C601.517 58.1733 601.97 57.1333 602.877 56.28C603.837 55.4267 605.01 55 606.397 55H628.077C633.09 55 637.063 56.4133 639.997 59.24C642.983 62.0667 644.477 65.8533 644.477 70.6C644.477 72.9467 643.837 75.1867 642.557 77.32C641.33 79.4 639.677 81 637.597 82.12V82.36C640.477 83.2667 642.717 84.84 644.317 87.08C645.97 89.2667 646.797 91.8 646.797 94.68C646.797 97.88 646.077 100.733 644.637 103.24C643.197 105.693 641.197 107.613 638.637 109C636.077 110.333 633.143 111 629.837 111H606.397ZM627.917 78.92C629.837 78.92 631.463 78.1467 632.797 76.6C634.183 75.0533 634.877 73.16 634.877 70.92C634.877 68.52 634.263 66.6267 633.037 65.24C631.81 63.8533 630.103 63.16 627.917 63.16H610.957V78.92H627.917ZM629.517 102.76C631.917 102.76 633.783 102.067 635.117 100.68C636.503 99.24 637.197 97.2933 637.197 94.84C637.197 92.3333 636.53 90.4133 635.197 89.08C633.863 87.6933 631.97 87 629.517 87H610.957V102.76H629.517ZM677.832 111.72C673.406 111.72 669.432 110.84 665.912 109.08C662.392 107.267 659.619 104.787 657.592 101.64C655.619 98.4933 654.632 94.9467 654.632 91V61.64C654.632 59.24 655.432 57.4267 657.032 56.2C658.686 54.92 661.086 54.28 664.232 54.28V91C664.232 94.7333 665.459 97.72 667.912 99.96C670.419 102.147 673.726 103.24 677.832 103.24C681.886 103.24 685.139 102.12 687.592 99.88C690.099 97.64 691.352 94.68 691.352 91V61.64C691.352 59.24 692.152 57.4267 693.752 56.2C695.406 54.92 697.806 54.28 700.952 54.28V91C700.952 94.9467 699.939 98.4933 697.912 101.64C695.939 104.787 693.192 107.267 689.672 109.08C686.152 110.84 682.206 111.72 677.832 111.72ZM715.537 111C714.151 111 712.977 110.573 712.017 109.72C711.111 108.867 710.657 107.8 710.657 106.52V59.4C710.657 58.1733 711.111 57.1333 712.017 56.28C712.977 55.4267 714.151 55 715.537 55H733.617C738.257 55 742.364 55.88 745.937 57.64C749.564 59.4 752.364 61.88 754.337 65.08C756.311 68.28 757.297 71.96 757.297 76.12V89.64C757.297 93.8 756.284 97.5067 754.257 100.76C752.284 103.96 749.484 106.467 745.857 108.28C742.284 110.093 738.204 111 733.617 111H715.537ZM732.817 102.68C737.564 102.68 741.217 101.56 743.777 99.32C746.391 97.08 747.697 93.9067 747.697 89.8V76.04C747.697 71.9333 746.417 68.7867 743.857 66.6C741.297 64.4133 737.617 63.32 732.817 63.32H720.257V102.68H732.817ZM771.084 111C769.697 111 768.524 110.573 767.564 109.72C766.657 108.867 766.204 107.8 766.204 106.52V59.4C766.204 58.1733 766.657 57.1333 767.564 56.28C768.524 55.4267 769.697 55 771.084 55H789.164C793.804 55 797.911 55.88 801.484 57.64C805.111 59.4 807.911 61.88 809.884 65.08C811.857 68.28 812.844 71.96 812.844 76.12V89.64C812.844 93.8 811.831 97.5067 809.804 100.76C807.831 103.96 805.031 106.467 801.404 108.28C797.831 110.093 793.751 111 789.164 111H771.084ZM788.364 102.68C793.111 102.68 796.764 101.56 799.324 99.32C801.937 97.08 803.244 93.9067 803.244 89.8V76.04C803.244 71.9333 801.964 68.7867 799.404 66.6C796.844 64.4133 793.164 63.32 788.364 63.32H775.804V102.68H788.364ZM835.376 90.84L815.536 55.32C816.016 55.0533 816.736 54.8133 817.696 54.6C818.656 54.3867 819.536 54.28 820.336 54.28C822.096 54.28 823.563 54.6533 824.736 55.4C825.963 56.0933 827.003 57.2133 827.856 58.76L840.016 81.48L837.936 85.64L838.736 86.04L852.576 58.76C854.069 55.7733 856.576 54.28 860.096 54.28C860.896 54.28 861.776 54.3867 862.736 54.6C863.696 54.8133 864.416 55.0533 864.896 55.32L845.056 90.84V104.36C845.056 106.707 844.229 108.52 842.576 109.8C840.923 111.08 838.523 111.72 835.376 111.72V90.84Z" fill="#323131"/>
<defs>
<linearGradient id="paint0_linear_2004_4" x1="0" y1="0" x2="193.227" y2="496.819" gradientUnits="userSpaceOnUse">
<stop stop-color="#F49C6D"/>
<stop offset="1" stop-color="#EC51D7"/>
</linearGradient>
</defs>
</svg>
